<svg width="82" height="16" viewBox="0 0 82 16" fill="none" xmlns="http://www.w3.org/2000/svg">
<path d="M8.81893 9.24365H3.31878C3.10675 9.24365 2.93487 9.41473 2.93487 9.62576V15.0589C2.93487 15.2697 2.76299 15.4408 2.5512 15.4408H0.383672C0.17188 15.4408 0 15.2697 0 15.0589V1.25835C0 1.04754 0.17188 0.876465 0.383672 0.876465H2.5512C2.76299 0.876465 2.93487 1.04754 2.93487 1.25835V6.48276C2.93487 6.69379 3.10675 6.86487 3.31878 6.86487H8.81893C9.03095 6.86487 9.20283 6.69379 9.20283 6.48276V1.25835C9.20283 1.04754 9.37471 0.876465 9.5865 0.876465H11.754C11.9658 0.876465 12.1377 1.04754 12.1377 1.25835V15.0591C12.1377 15.2699 11.9658 15.441 11.754 15.441H9.5865C9.37471 15.441 9.20283 15.2699 9.20283 15.0591V9.62599C9.20283 9.41496 9.03095 9.24388 8.81893 9.24388V9.24365Z" fill="black"/>
<path d="M18.9095 3.69382C20.4758 3.69382 21.6282 4.31131 22.3672 5.07737C22.5049 5.21997 22.7458 5.12628 22.7458 4.92856V4.20912C22.7458 4.02817 22.8932 3.88166 23.0748 3.88166H25.3726C25.5544 3.88166 25.7016 4.0284 25.7016 4.20912V15.1138C25.7016 15.2947 25.5542 15.4412 25.3726 15.4412H23.0748C22.893 15.4412 22.7458 15.2945 22.7458 15.1138V14.3665C22.7458 14.1677 22.5024 14.0744 22.3656 14.2193C21.6176 15.0107 20.438 15.6288 18.8885 15.6288C15.9536 15.6288 13.6055 13.2292 13.6055 9.6193C13.6055 6.00945 15.9534 3.69336 18.9093 3.69336L18.9095 3.69382ZM19.6642 6.26021C18.0919 6.26021 16.6036 7.42882 16.6036 9.61976C16.6036 11.8107 18.0919 13.0627 19.6642 13.0627C21.2365 13.0627 22.7458 11.8525 22.7458 9.66156C22.7458 7.47061 21.2782 6.26044 19.6642 6.26044V6.26021Z" fill="black"/>
<path d="M36.037 9.05588C36.037 7.19883 35.0097 6.19716 33.4586 6.19716C31.9075 6.19716 30.8382 7.19883 30.8382 9.05588V15.0583C30.8382 15.2696 30.6661 15.4409 30.4538 15.4409H28.2877C28.0754 15.4409 27.9033 15.2696 27.9033 15.0583V4.26387C27.9033 4.05261 28.0754 3.8813 28.2877 3.8813H30.4538C30.6661 3.8813 30.8382 4.05261 30.8382 4.26387V4.74863C30.8382 4.94221 31.0712 5.03935 31.211 4.90455C31.9756 4.16674 33.0742 3.71436 34.3392 3.71436C37.0436 3.71436 38.9724 5.46715 38.9724 8.65953V15.059C38.9724 15.27 38.8005 15.4411 38.5885 15.4411H36.4212C36.2091 15.4411 36.0373 15.27 36.0373 15.059V9.05611L36.037 9.05588Z" fill="black"/>
<path d="M45.7672 3.69344C47.0825 3.69344 48.3512 4.21746 49.1877 5.05356C49.3257 5.19134 49.5617 5.09352 49.5617 4.89879V0.382801C49.5617 0.171307 49.7338 0 49.9463 0H52.154C52.3664 0 52.5386 0.171307 52.5386 0.382801V15.058C52.5386 15.2695 52.3664 15.4408 52.154 15.4408H49.9463C49.7338 15.4408 49.5617 15.2695 49.5617 15.058V14.3717C49.5617 14.1698 49.3132 14.078 49.1769 14.2275C48.434 15.0429 47.274 15.6285 45.7462 15.6285C42.7903 15.6285 40.4424 13.2288 40.4424 9.61892C40.4424 6.00907 42.7903 3.69298 45.7672 3.69298V3.69344ZM46.5008 6.25983C44.9286 6.25983 43.44 7.42844 43.44 9.61938C43.44 11.8103 44.9286 13.0623 46.5008 13.0623C48.0731 13.0623 49.5825 11.8521 49.5825 9.66117C49.5825 7.47023 48.1149 6.26006 46.5008 6.26006V6.25983Z" fill="black"/>
<path d="M59.8947 15.6288C56.5403 15.6288 54.0039 13.2918 54.0039 9.6611C54.0039 6.03035 56.6243 3.69336 59.9786 3.69336C63.3329 3.69336 65.9533 6.00945 65.9533 9.6611C65.9533 13.3127 63.27 15.6288 59.8947 15.6288ZM59.8947 13.0833C61.446 13.0833 62.9345 11.9565 62.9345 9.66133C62.9345 7.36613 61.4879 6.23931 59.9366 6.23931C58.3853 6.23931 56.9808 7.34523 56.9808 9.66133C56.9808 11.9774 58.3224 13.0833 59.8949 13.0833H59.8947Z" fill="black"/>
<path d="M70.4543 3.26494C70.5577 2.98571 70.7351 2.77628 70.9861 2.6362C71.2374 2.49658 71.5846 2.42655 72.0278 2.42655H73.1244C73.3364 2.42655 73.5083 2.25547 73.5083 2.04443V0.382111C73.5083 0.171077 73.3364 0 73.1244 0H71.7129C70.7231 0 69.9142 0.154544 69.2863 0.463172C68.6583 0.77203 68.1892 1.27217 67.8789 1.96314C67.5688 2.65457 67.4136 3.56622 67.4136 4.69832V15.0587C67.4136 15.2698 67.5854 15.4408 67.7975 15.4408H69.9154C70.1274 15.4408 70.2993 15.2698 70.2993 15.0587V7.58597C70.2993 7.46518 70.3976 7.36736 70.5189 7.36736H73.0392C73.2512 7.36736 73.4231 7.19628 73.4231 6.98525V5.25197C73.4231 5.04093 73.2512 4.86985 73.0392 4.86985H70.5189C70.3976 4.86985 70.2993 4.77203 70.2993 4.65124V4.36719C70.2993 3.91159 70.3508 3.54372 70.4543 3.26425V3.26494Z" fill="black"/>
<path d="M78.0154 3.26494C78.1187 2.98571 78.2962 2.77628 78.5472 2.6362C78.7984 2.49658 79.1456 2.42655 79.5888 2.42655H80.6854C80.8974 2.42655 81.0693 2.25547 81.0693 2.04443V0.382111C81.0693 0.171077 80.8974 0 80.6854 0H79.2739C78.2842 0 77.4753 0.154544 76.8473 0.463172C76.2193 0.77203 75.7503 1.27217 75.44 1.96314C75.1299 2.65457 74.9746 3.56622 74.9746 4.69832V15.0587C74.9746 15.2698 75.1465 15.4408 75.3585 15.4408H77.4764C77.6885 15.4408 77.8603 15.2698 77.8603 15.0587V7.58597C77.8603 7.46518 77.9586 7.36736 78.08 7.36736H80.6003C80.8123 7.36736 80.9842 7.19628 80.9842 6.98525V5.25197C80.9842 5.04093 80.8123 4.86985 80.6003 4.86985H78.08C77.9586 4.86985 77.8603 4.77203 77.8603 4.65124V4.36719C77.8603 3.91159 77.9118 3.54372 78.0154 3.26425V3.26494Z" fill="black"/>
</svg>
