<svg width="112" height="32" viewBox="0 0 112 32" fill="none" xmlns="http://www.w3.org/2000/svg">
<g clip-path="url(#clip0_9658_3398)">
<path d="M39.7496 16.3086H34.2494C34.0374 16.3086 33.8655 16.4797 33.8655 16.6907V22.1238C33.8655 22.3347 33.6937 22.5057 33.4819 22.5057H31.3143C31.1025 22.5057 30.9307 22.3347 30.9307 22.1238V8.32329C30.9307 8.11248 31.1025 7.94141 31.3143 7.94141H33.4819C33.6937 7.94141 33.8655 8.11248 33.8655 8.32329V13.5477C33.8655 13.7587 34.0374 13.9298 34.2494 13.9298H39.7496C39.9616 13.9298 40.1335 13.7587 40.1335 13.5477V8.32329C40.1335 8.11248 40.3054 7.94141 40.5172 7.94141H42.6847C42.8965 7.94141 43.0684 8.11248 43.0684 8.32329V22.1241C43.0684 22.3349 42.8965 22.506 42.6847 22.506H40.5172C40.3054 22.506 40.1335 22.3349 40.1335 22.1241V16.6909C40.1335 16.4799 39.9616 16.3088 39.7496 16.3088V16.3086Z" fill="black"/>
<path d="M49.8402 10.7588C51.4065 10.7588 52.5589 11.3762 53.2978 12.1423C53.4356 12.2849 53.6764 12.1912 53.6764 11.9935V11.2741C53.6764 11.0931 53.8239 10.9466 54.0054 10.9466H56.3033C56.4851 10.9466 56.6323 11.0933 56.6323 11.2741V22.1787C56.6323 22.3597 56.4849 22.5062 56.3033 22.5062H54.0054C53.8236 22.5062 53.6764 22.3594 53.6764 22.1787V21.4315C53.6764 21.2326 53.433 21.1394 53.2962 21.2843C52.5483 22.0756 51.3686 22.6938 49.8192 22.6938C46.8843 22.6938 44.5361 20.2941 44.5361 16.6842C44.5361 13.0744 46.8841 10.7583 49.8399 10.7583L49.8402 10.7588ZM50.5948 13.3252C49.0225 13.3252 47.5342 14.4938 47.5342 16.6847C47.5342 18.8756 49.0225 20.1276 50.5948 20.1276C52.1671 20.1276 53.6764 18.9174 53.6764 16.7265C53.6764 14.5356 52.2089 13.3254 50.5948 13.3254V13.3252Z" fill="black"/>
<path d="M66.9677 16.1208C66.9677 14.2638 65.9403 13.2621 64.3893 13.2621C62.8382 13.2621 61.7689 14.2638 61.7689 16.1208V22.1232C61.7689 22.3345 61.5967 22.5058 61.3845 22.5058H59.2183C59.0061 22.5058 58.834 22.3345 58.834 22.1232V11.3288C58.834 11.1175 59.0061 10.9462 59.2183 10.9462H61.3845C61.5967 10.9462 61.7689 11.1175 61.7689 11.3288V11.8136C61.7689 12.0072 62.0019 12.1043 62.1417 11.9695C62.9063 11.2317 64.0049 10.7793 65.2699 10.7793C67.9743 10.7793 69.903 12.5321 69.903 15.7245V22.1239C69.903 22.335 69.7312 22.506 69.5191 22.506H67.3518C67.1398 22.506 66.9679 22.335 66.9679 22.1239V16.121L66.9677 16.1208Z" fill="black"/>
<path d="M76.6979 10.7584C78.0131 10.7584 79.2818 11.2824 80.1184 12.1185C80.2563 12.2563 80.4924 12.1585 80.4924 11.9637V7.44774C80.4924 7.23625 80.6645 7.06494 80.877 7.06494H83.0846C83.2971 7.06494 83.4692 7.23625 83.4692 7.44774V22.123C83.4692 22.3345 83.2971 22.5058 83.0846 22.5058H80.877C80.6645 22.5058 80.4924 22.3345 80.4924 22.123V21.4366C80.4924 21.2348 80.2439 21.1429 80.1075 21.2924C79.3646 22.1078 78.2046 22.6934 76.6769 22.6934C73.721 22.6934 71.373 20.2937 71.373 16.6839C71.373 13.074 73.721 10.7579 76.6979 10.7579V10.7584ZM77.4315 13.3248C75.8592 13.3248 74.3707 14.4934 74.3707 16.6843C74.3707 18.8753 75.8592 20.1272 77.4315 20.1272C79.0038 20.1272 80.5131 18.9171 80.5131 16.7261C80.5131 14.5352 79.0456 13.325 77.4315 13.325V13.3248Z" fill="black"/>
<path d="M90.8253 22.6938C87.471 22.6938 84.9346 20.3568 84.9346 16.726C84.9346 13.0953 87.555 10.7583 90.9093 10.7583C94.2636 10.7583 96.884 13.0744 96.884 16.726C96.884 20.3777 94.2006 22.6938 90.8253 22.6938ZM90.8253 20.1483C92.3766 20.1483 93.8652 19.0215 93.8652 16.7263C93.8652 14.4311 92.4186 13.3043 90.8673 13.3043C89.316 13.3043 87.9114 14.4102 87.9114 16.7263C87.9114 19.0424 89.253 20.1483 90.8255 20.1483H90.8253Z" fill="black"/>
<path d="M101.385 10.3299C101.488 10.0506 101.666 9.84122 101.917 9.70114C102.168 9.56153 102.515 9.49149 102.958 9.49149H104.055C104.267 9.49149 104.439 9.32041 104.439 9.10938V7.44705C104.439 7.23602 104.267 7.06494 104.055 7.06494H102.644C101.654 7.06494 100.845 7.21948 100.217 7.52811C99.5889 7.83697 99.1199 8.33712 98.8096 9.02808C98.4995 9.71951 98.3442 10.6312 98.3442 11.7633V22.1237C98.3442 22.3347 98.5161 22.5058 98.7281 22.5058H100.846C101.058 22.5058 101.23 22.3347 101.23 22.1237V14.6509C101.23 14.5301 101.328 14.4323 101.45 14.4323H103.97C104.182 14.4323 104.354 14.2612 104.354 14.0502V12.3169C104.354 12.1059 104.182 11.9348 103.97 11.9348H101.45C101.328 11.9348 101.23 11.837 101.23 11.7162V11.4321C101.23 10.9765 101.281 10.6087 101.385 10.3292V10.3299Z" fill="black"/>
<path d="M108.946 10.3299C109.049 10.0506 109.227 9.84122 109.478 9.70114C109.729 9.56153 110.076 9.49149 110.519 9.49149H111.616C111.828 9.49149 112 9.32041 112 9.10938V7.44705C112 7.23602 111.828 7.06494 111.616 7.06494H110.205C109.215 7.06494 108.406 7.21948 107.778 7.52811C107.15 7.83697 106.681 8.33712 106.371 9.02808C106.061 9.71951 105.905 10.6312 105.905 11.7633V22.1237C105.905 22.3347 106.077 22.5058 106.289 22.5058H108.407C108.619 22.5058 108.791 22.3347 108.791 22.1237V14.6509C108.791 14.5301 108.889 14.4323 109.011 14.4323H111.531C111.743 14.4323 111.915 14.2612 111.915 14.0502V12.3169C111.915 12.1059 111.743 11.9348 111.531 11.9348H109.011C108.889 11.9348 108.791 11.837 108.791 11.7162V11.4321C108.791 10.9765 108.842 10.6087 108.946 10.3292V10.3299Z" fill="black"/>
<path d="M14.5877 17.8003H10.4834C10.034 17.8003 9.66943 18.1629 9.66943 18.6102V23.9997H15.4014V18.6102C15.4014 18.1629 15.0369 17.8003 14.5875 17.8003H14.5877Z" fill="#02B05E"/>
<path d="M23.5171 5.40889L13.6161 0.265544C12.9357 -0.0878635 12.1246 -0.0878635 11.4442 0.265544L1.54369 5.40889C0.594773 5.90192 0 6.87878 0 7.94405V21.3496C0 22.8136 1.19231 24.0003 2.6631 24.0003H5.26759V8.76247C5.26759 8.31423 5.63258 7.95071 6.08316 7.95071H8.85469C9.30503 7.95071 9.67002 8.314 9.67002 8.76224V13.3423C9.67002 13.7905 10.035 14.1541 10.4856 14.1541H14.5865C15.037 14.1541 15.4023 13.7905 15.4023 13.3421V8.76247C15.4023 8.31423 15.7672 7.95071 16.2178 7.95071H18.9894C19.4397 7.95071 19.8047 8.314 19.8047 8.76224V24.0001H22.4394C23.8876 24.0001 25.0614 22.8317 25.0614 21.3903V7.94405C25.0614 6.87878 24.4664 5.90192 23.5177 5.40889H23.5171Z" fill="#02B05E"/>
</g>
<defs>
<clipPath id="clip0_9658_3398">
<rect width="112" height="24" fill="white"/>
</clipPath>
</defs>
</svg>
