<svg width="22" height="22" viewBox="0 0 22 22" fill="none" xmlns="http://www.w3.org/2000/svg">
<path fill-rule="evenodd" clip-rule="evenodd" d="M11 0C4.92487 0 0 4.92487 0 11C0 17.0751 4.92487 22 11 22C17.0751 22 22 17.0751 22 11C22 4.92487 17.0751 0 11 0ZM12 4.5C12 3.94772 11.5523 3.5 11 3.5C10.4477 3.5 10 3.94772 10 4.5V5C8.067 5 6.5 6.567 6.5 8.5C6.5 10.433 8.067 12 10 12H12C12.8284 12 13.5 12.6716 13.5 13.5C13.5 14.3284 12.8284 15 12 15H9.83333C9.09695 15 8.5 14.403 8.5 13.6667C8.5 13.1144 8.05229 12.6667 7.5 12.6667C6.94772 12.6667 6.5 13.1144 6.5 13.6667C6.5 15.5076 7.99238 17 9.83333 17H10V17.5C10 18.0523 10.4477 18.5 11 18.5C11.5523 18.5 12 18.0523 12 17.5V17C13.933 17 15.5 15.433 15.5 13.5C15.5 11.567 13.933 10 12 10H10C9.17157 10 8.5 9.32843 8.5 8.5C8.5 7.67157 9.17157 7 10 7H12.1667C12.903 7 13.5 7.59695 13.5 8.33333C13.5 8.88562 13.9477 9.33333 14.5 9.33333C15.0523 9.33333 15.5 8.88562 15.5 8.33333C15.5 6.49238 14.0076 5 12.1667 5H12V4.5Z" fill="#4E6D5D"/>
</svg>
