<svg width="23" height="20" viewBox="0 0 23 20" fill="none" xmlns="http://www.w3.org/2000/svg">
<path fill-rule="evenodd" clip-rule="evenodd" d="M1.5 15.5001C1.5 14.9478 1.94772 14.5001 2.5 14.5001H8C8.55228 14.5001 9 14.9478 9 15.5001C9 16.0524 8.55228 16.5001 8 16.5001H2.5C1.94772 16.5001 1.5 16.0524 1.5 15.5001Z" fill="#4E6D5D"/>
<path fill-rule="evenodd" clip-rule="evenodd" d="M0 10.0001C0 9.4478 0.447715 9.00008 1 9.00008H5.5C6.05228 9.00008 6.5 9.4478 6.5 10.0001C6.5 10.5524 6.05228 11.0001 5.5 11.0001H1C0.447715 11.0001 0 10.5524 0 10.0001Z" fill="#4E6D5D"/>
<path fill-rule="evenodd" clip-rule="evenodd" d="M2 4.50008C2 3.9478 2.44772 3.50008 3 3.50008H8C8.55228 3.50008 9 3.9478 9 4.50008C9 5.05237 8.55228 5.50008 8 5.50008H3C2.44772 5.50008 2 5.05237 2 4.50008Z" fill="#4E6D5D"/>
<path fill-rule="evenodd" clip-rule="evenodd" d="M16.3676 0.0700901C16.7947 0.238913 17.0519 0.676988 16.9912 1.13225L16.1422 7.50008H19.9454C19.9569 7.50008 19.9684 7.50008 19.9799 7.50008C20.2007 7.50003 20.4295 7.49998 20.6185 7.51726C20.8044 7.53425 21.1426 7.5793 21.4449 7.81263C21.7975 8.08474 22.0109 8.49945 22.0274 8.9445C22.0415 9.32613 21.8816 9.62752 21.7874 9.78868C21.6916 9.9525 21.5586 10.1386 21.4302 10.3182C21.4235 10.3276 21.4168 10.337 21.4102 10.3463L14.8137 19.5813C14.5468 19.9551 14.0596 20.0989 13.6324 19.9301C13.2053 19.7613 12.9481 19.3232 13.0088 18.8679L13.8578 12.5001H10.0546C10.0431 12.5001 10.0316 12.5001 10.0201 12.5001C9.79931 12.5001 9.57052 12.5002 9.38154 12.4829C9.19563 12.4659 8.85743 12.4209 8.55511 12.1875C8.20254 11.9154 7.98913 11.5007 7.97263 11.0557C7.95847 10.674 8.1184 10.3726 8.21263 10.2115C8.30841 10.0477 8.44143 9.86153 8.56977 9.68193C8.57647 9.67255 8.58316 9.66319 8.58983 9.65385L15.1863 0.418846C15.4532 0.0451069 15.9404 -0.0987332 16.3676 0.0700901Z" fill="#4E6D5D"/>
</svg>
