<svg width="22" height="22" viewBox="0 0 22 22" fill="none" xmlns="http://www.w3.org/2000/svg">
<path fill-rule="evenodd" clip-rule="evenodd" d="M4.66953 4C4.55821 3.68133 4.5 3.34339 4.5 3C4.5 2.21011 4.80801 1.44902 5.36188 0.885078C5.91635 0.320531 6.67224 0 7.46429 0C9.259 0 10.3725 1.21846 11 2.27224C11.6275 1.21846 12.741 0 14.5357 0C15.3278 0 16.0837 0.320531 16.6381 0.885078C17.192 1.44902 17.5 2.21011 17.5 3C17.5 3.34339 17.4418 3.68133 17.3305 4L19.5265 4C19.7365 3.99998 19.9412 3.99996 20.1152 4.01184C20.3056 4.02483 20.5313 4.0553 20.7654 4.15225C21.2554 4.35524 21.6448 4.74458 21.8478 5.23464C21.9447 5.46868 21.9752 5.69441 21.9882 5.88478C22.0001 6.05876 22 6.26342 22 6.47333V6.52668C22 6.73658 22.0001 6.94126 21.9882 7.11523C21.9752 7.3056 21.9447 7.53133 21.8478 7.76537C21.6448 8.25543 21.2554 8.64478 20.7654 8.84776C20.5313 8.94471 20.3056 8.97518 20.1152 8.98817C19.9412 9.00005 19.7366 9.00003 19.5265 9.00001H2.47353C2.26348 9.00003 2.05886 9.00005 1.88478 8.98817C1.69441 8.97518 1.46868 8.94471 1.23464 8.84776C0.744585 8.64478 0.355236 8.25543 0.152248 7.76537C0.0553046 7.53133 0.024831 7.3056 0.0118421 7.11523C-3.09916e-05 6.94121 -1.51027e-05 6.73659 1.20639e-06 6.52663V6.47344C-1.49838e-05 6.26348 -3.07569e-05 6.0588 0.0118422 5.88478C0.0248312 5.69441 0.0553049 5.46868 0.152249 5.23464C0.355236 4.74458 0.744585 4.35524 1.23464 4.15225C1.46868 4.0553 1.69441 4.02483 1.88478 4.01184C2.05882 3.99997 2.26355 3.99998 2.47354 4L4.66953 4ZM7.46429 2C7.21442 2 6.97106 2.1009 6.78878 2.28649C6.60589 2.4727 6.5 2.72903 6.5 3C6.5 3.27097 6.60589 3.5273 6.78878 3.71351C6.97106 3.8991 7.21442 4 7.46429 4H9.63425C9.56186 3.82865 9.47857 3.65116 9.38355 3.47527C8.89769 2.57581 8.27397 2 7.46429 2ZM12.3658 4C12.4381 3.82865 12.5214 3.65116 12.6165 3.47527C13.1023 2.57581 13.726 2 14.5357 2C14.7856 2 15.029 2.1009 15.2112 2.28649C15.3941 2.4727 15.5 2.72903 15.5 3C15.5 3.27097 15.3941 3.5273 15.2112 3.71351C15.029 3.8991 14.7856 4 14.5357 4H12.3658Z" fill="#4E6D5D"/>
<path d="M2.00001 12C2.00001 11.4477 2.44772 11 3.00001 11H9.2C9.48003 11 9.62004 11 9.727 11.0545C9.82108 11.1024 9.89757 11.1789 9.94551 11.273C10 11.38 10 11.52 10 11.8V21.2C10 21.48 10 21.62 9.94551 21.727C9.89757 21.8211 9.82108 21.8976 9.727 21.9455C9.62004 22 9.48003 22 9.2 22H6.16136C5.63432 22 5.17949 22 4.80498 21.9694C4.40963 21.9371 4.01641 21.8658 3.63803 21.673C3.07355 21.3854 2.61461 20.9265 2.32699 20.362C2.13419 19.9836 2.06288 19.5904 2.03058 19.195C1.99997 18.8205 1.99999 18.3657 2.00001 17.8385L2.00001 12Z" fill="#4E6D5D"/>
<path d="M17.195 21.9694C16.8205 22 16.3657 22 15.8385 22H12.8C12.52 22 12.38 22 12.273 21.9455C12.1789 21.8976 12.1024 21.8211 12.0545 21.727C12 21.62 12 21.48 12 21.2V11.8C12 11.52 12 11.38 12.0545 11.273C12.1024 11.1789 12.1789 11.1024 12.273 11.0545C12.38 11 12.52 11 12.8 11H19C19.5523 11 20 11.4477 20 12V17.8386C20 18.3657 20 18.8205 19.9694 19.195C19.9371 19.5904 19.8658 19.9836 19.673 20.362C19.3854 20.9265 18.9265 21.3854 18.362 21.673C17.9836 21.8658 17.5904 21.9371 17.195 21.9694Z" fill="#4E6D5D"/>
</svg>
