<svg preserveAspectRatio="none" width="100%" height="100%" overflow="visible" style="display: block;" viewBox="0 0 22.6804 18.5567" fill="none" xmlns="http://www.w3.org/2000/svg">
<g id="Solid">
<path d="M11.3402 7.73196C10.4862 7.73196 9.79382 8.4243 9.79382 9.27835C9.79382 10.1324 10.4862 10.8247 11.3402 10.8247C12.1943 10.8247 12.8866 10.1324 12.8866 9.27835C12.8866 8.4243 12.1943 7.73196 11.3402 7.73196Z" fill="var(--fill-0, #698474)"/>
<path fill-rule="evenodd" clip-rule="evenodd" d="M16.4949 0C14.265 0 12.3316 0.559237 10.6504 1.07652L10.3365 1.17333C8.74829 1.66363 7.45833 2.06185 6.18557 2.06185C5.27234 2.06185 4.45649 1.96477 3.76961 1.83279L3.73719 1.82656C3.23399 1.72987 2.81138 1.64866 2.48297 1.60525C2.19485 1.56717 1.76789 1.5219 1.37745 1.65929C1.17282 1.7313 0.951479 1.83401 0.742213 2.00689C0.532947 2.17978 0.390318 2.37776 0.280991 2.56513C0.0801726 2.9093 0.0383706 3.29939 0.0198358 3.57835C-2.01358e-05 3.8772 -8.33843e-06 4.25731 5.42594e-06 4.69594L2.96802e-06 15.8255C-6.14296e-05 16.0287 -0.000137997 16.27 0.122624 16.6099C0.183595 16.7787 0.284002 16.9417 0.341969 17.0306C0.399936 17.1195 0.508515 17.2772 0.638356 17.4011C0.722312 17.4812 0.818041 17.566 0.932671 17.6412C1.04509 17.715 1.14749 17.7598 1.19218 17.7794L1.20031 17.783C2.04541 18.1558 3.56131 18.5567 6.18557 18.5567C8.41544 18.5567 10.3488 17.9975 12.03 17.4802L12.344 17.3834C13.9321 16.8931 15.2221 16.4948 16.4949 16.4948C17.4081 16.4948 18.2239 16.5919 18.9108 16.7239L18.9433 16.7301C19.4465 16.8268 19.869 16.908 20.1975 16.9514C20.4856 16.9895 20.9125 17.0348 21.303 16.8974C21.5076 16.8254 21.7289 16.7227 21.9382 16.5498C22.1475 16.3769 22.2901 16.1789 22.3994 15.9916C22.6003 15.6474 22.6421 15.2573 22.6606 14.9783C22.6804 14.6795 22.6804 14.2994 22.6804 13.8608L22.6804 2.73125C22.6805 2.528 22.6806 2.28666 22.5578 1.94678C22.4968 1.77798 22.3964 1.61501 22.3385 1.52609C22.2805 1.43716 22.1719 1.27952 22.0421 1.15561C21.9581 1.07549 21.8624 0.990727 21.7478 0.915505C21.6353 0.841729 21.5329 0.796859 21.4882 0.777279L21.4801 0.773712C20.635 0.400934 19.1191 0 16.4949 0ZM18.5567 6.18557C18.5567 5.6162 18.0951 5.15464 17.5258 5.15464C16.9564 5.15464 16.4948 5.6162 16.4948 6.18557V10.3093C16.4948 10.8786 16.9564 11.3402 17.5258 11.3402C18.0951 11.3402 18.5567 10.8786 18.5567 10.3093V6.18557ZM7.73196 9.27835C7.73196 7.28557 9.34743 5.6701 11.3402 5.6701C13.333 5.6701 14.9485 7.28557 14.9485 9.27835C14.9485 11.2711 13.333 12.8866 11.3402 12.8866C9.34743 12.8866 7.73196 11.2711 7.73196 9.27835ZM5.15464 7.2165C5.72401 7.2165 6.18557 7.67806 6.18557 8.24742V12.3711C6.18557 12.9405 5.72401 13.4021 5.15464 13.4021C4.58527 13.4021 4.12371 12.9405 4.12371 12.3711V8.24742C4.12371 7.67806 4.58527 7.2165 5.15464 7.2165Z" fill="var(--fill-0, #698474)"/>
</g>
</svg>
