<svg preserveAspectRatio="none" width="100%" height="100%" overflow="visible" style="display: block;" viewBox="0 0 21.8886 21.8886" fill="none" xmlns="http://www.w3.org/2000/svg">
<path id="Solid" d="M20.8429 0.0689476C20.4349 -0.0673556 20.055 0.0312146 19.8662 0.0860711C19.6604 0.145854 19.4151 0.241621 19.169 0.337704L1.68747 7.15977C1.41239 7.26708 1.14595 7.37101 0.940302 7.4727C0.762615 7.56055 0.384946 7.7561 0.174135 8.16189C-0.0583414 8.60938 -0.058028 9.14211 0.174975 9.58932C0.386263 9.99485 0.76416 10.19 0.941951 10.2776C1.14771 10.379 1.41423 10.4827 1.68943 10.5896L6.55543 12.482C6.91844 12.6231 7.09995 12.6937 7.28052 12.6981C7.44012 12.7019 7.59844 12.6686 7.74299 12.6008C7.90652 12.5241 8.04423 12.3864 8.31964 12.111L13.3149 7.11574C13.7175 6.71314 14.3703 6.71314 14.7729 7.11574C15.1755 7.51834 15.1755 8.17109 14.7729 8.57369L9.77759 13.569C9.50218 13.8444 9.36447 13.9821 9.28778 14.1456C9.21999 14.2902 9.1867 14.4485 9.19053 14.6081C9.19487 14.7886 9.26545 14.9702 9.40663 15.3332L11.2989 20.1991C11.4059 20.4743 11.5095 20.7409 11.611 20.9466C11.6986 21.1244 11.8937 21.5023 12.2993 21.7136C12.7465 21.9466 13.2792 21.9469 13.7267 21.7145C14.1325 21.5036 14.328 21.126 14.4159 20.9483C14.5176 20.7426 14.6215 20.4762 14.7288 20.2012L21.5509 2.71957C21.647 2.47348 21.7427 2.2282 21.8025 2.0224C21.8574 1.83354 21.9559 1.45369 21.8196 1.04568C21.6656 0.584702 21.3039 0.222945 20.8429 0.0689476Z" fill="var(--fill-0, #698474)"/>
</svg>
