<svg preserveAspectRatio="none" width="100%" height="100%" overflow="visible" style="display: block;" viewBox="0 0 20 20" fill="none" xmlns="http://www.w3.org/2000/svg">
<g id="Solid">
<path d="M6 1.6C6 1.03995 6 0.759922 5.89101 0.54601C5.79513 0.357848 5.64215 0.204868 5.45399 0.108994C5.24008 8.04663e-07 4.96005 8.04846e-07 4.4 8.04846e-07H4.16146C3.63433 -1.63023e-05 3.17954 -3.10596e-05 2.80497 0.030572C2.40963 0.062873 2.01641 0.134189 1.63803 0.326983C1.07354 0.614603 0.614603 1.07354 0.326983 1.63803C0.134189 2.01641 0.062873 2.40963 0.030572 2.80497C-3.10596e-05 3.17954 -1.63023e-05 3.63429 8.04846e-07 4.16142V15.8385C-1.63023e-05 16.3657 -3.10596e-05 16.8205 0.030572 17.195C0.062873 17.5904 0.134189 17.9836 0.326983 18.362C0.614603 18.9265 1.07354 19.3854 1.63803 19.673C2.01641 19.8658 2.40963 19.9371 2.80497 19.9694C3.17954 20 3.6343 20 4.16144 20H4.4C4.96005 20 5.24008 20 5.45399 19.891C5.64215 19.7951 5.79514 19.6422 5.89101 19.454C6 19.2401 6 18.9601 6 18.4L6 1.6Z" fill="var(--fill-0, #4E6D5D)"/>
<path fill-rule="evenodd" clip-rule="evenodd" d="M8 18.4C8 18.9601 8 19.2401 8.109 19.454C8.20487 19.6422 8.35785 19.7951 8.54601 19.891C8.75992 20 9.03995 20 9.6 20H15.8386C16.3657 20 16.8205 20 17.195 19.9694C17.5904 19.9371 17.9836 19.8658 18.362 19.673C18.9265 19.3854 19.3854 18.9265 19.673 18.362C19.8658 17.9836 19.9371 17.5904 19.9694 17.195C20 16.8205 20 16.3657 20 15.8386V4.16144C20 3.6343 20 3.17954 19.9694 2.80497C19.9371 2.40963 19.8658 2.01641 19.673 1.63803C19.3854 1.07354 18.9265 0.614603 18.362 0.326983C17.9836 0.134189 17.5904 0.062873 17.195 0.030572C16.8205 -3.10596e-05 16.3657 -1.63023e-05 15.8386 8.04846e-07H9.6C9.03995 8.04846e-07 8.75992 8.04663e-07 8.54601 0.108994C8.35785 0.204868 8.20487 0.357848 8.10899 0.54601C8 0.759922 8 1.03995 8 1.6L8 18.4ZM10 5C10 4.44772 10.4477 4 11 4H17C17.5523 4 18 4.44772 18 5C18 5.55229 17.5523 6 17 6H11C10.4477 6 10 5.55229 10 5ZM11 8C10.4477 8 10 8.44772 10 9C10 9.55229 10.4477 10 11 10H17C17.5523 10 18 9.55229 18 9C18 8.44772 17.5523 8 17 8H11ZM11 12C10.4477 12 10 12.4477 10 13C10 13.5523 10.4477 14 11 14H17C17.5523 14 18 13.5523 18 13C18 12.4477 17.5523 12 17 12H11Z" fill="var(--fill-0, #4E6D5D)"/>
</g>
</svg>
