<svg preserveAspectRatio="none" width="100%" height="100%" overflow="visible" style="display: block;" viewBox="0 0 20.6186 22.6804" fill="none" xmlns="http://www.w3.org/2000/svg">
<g id="Solid">
<path fill-rule="evenodd" clip-rule="evenodd" d="M12.6199 4.00882e-07H5.93681C5.10696 -1.18697e-05 4.42202 -2.19984e-05 3.8641 0.0455622C3.28462 0.0929078 2.75193 0.19452 2.25159 0.449459C1.47566 0.844814 0.844813 1.47566 0.449459 2.25159C0.19452 2.75193 0.0929077 3.28462 0.0455621 3.8641C-2.22058e-05 4.42203 -1.19808e-05 5.10694 4.06613e-07 5.93679V16.7436C-1.19808e-05 17.5735 -2.2202e-05 18.2584 0.0455621 18.8163C0.0929077 19.3958 0.19452 19.9285 0.449459 20.4288C0.844813 21.2048 1.47566 21.8356 2.25159 22.231C2.75193 22.4859 3.28462 22.5875 3.8641 22.6349C4.42203 22.6804 5.10693 22.6804 5.93678 22.6804H10.3245C10.3548 22.6804 10.37 22.6804 10.379 22.6801C10.8209 22.6648 11.0396 22.1366 10.738 21.8133C10.7319 21.8068 10.7212 21.796 10.6997 21.7746C9.49186 20.5668 9.49186 18.6085 10.6997 17.4007C11.8655 16.2349 13.7305 16.1944 14.9449 17.2791L17.4007 14.8234C17.5928 14.6313 17.8039 14.4697 18.0279 14.3387C18.257 14.2048 18.3715 14.1378 18.4256 14.0773C18.4823 14.0138 18.5056 13.9733 18.5317 13.8923C18.5567 13.815 18.5567 13.7134 18.5567 13.51V5.93678C18.5567 5.10693 18.5567 4.42203 18.5111 3.8641C18.4638 3.28462 18.3622 2.75193 18.1072 2.25159C17.7119 1.47566 17.081 0.844814 16.3051 0.449459C15.8048 0.19452 15.2721 0.0929078 14.6926 0.0455622C14.1347 -2.19984e-05 13.4497 -1.18697e-05 12.6199 4.00882e-07ZM5.15464 8.24742C4.58527 8.24742 4.12371 8.70898 4.12371 9.27835C4.12371 9.84772 4.58527 10.3093 5.15464 10.3093H11.3402C11.9096 10.3093 12.3711 9.84772 12.3711 9.27835C12.3711 8.70898 11.9096 8.24742 11.3402 8.24742H5.15464ZM4.12371 13.4021C4.12371 12.8327 4.58527 12.3711 5.15464 12.3711H7.2165C7.78586 12.3711 8.24742 12.8327 8.24742 13.4021C8.24742 13.9714 7.78586 14.433 7.2165 14.433H5.15464C4.58527 14.433 4.12371 13.9714 4.12371 13.4021ZM5.15464 4.12371C4.58527 4.12371 4.12371 4.58527 4.12371 5.15464C4.12371 5.72401 4.58527 6.18557 5.15464 6.18557H13.4021C13.9714 6.18557 14.433 5.72401 14.433 5.15464C14.433 4.58527 13.9714 4.12371 13.4021 4.12371H5.15464Z" fill="var(--fill-0, #698474)"/>
<path d="M20.3166 17.7393C20.7192 17.3367 20.7192 16.6839 20.3166 16.2813C19.914 15.8787 19.2613 15.8787 18.8587 16.2813L14.9485 20.1915L13.6156 18.8587C13.213 18.4561 12.5602 18.4561 12.1576 18.8587C11.755 19.2613 11.755 19.914 12.1576 20.3166L14.2195 22.3785C14.6221 22.7811 15.2748 22.7811 15.6774 22.3785L20.3166 17.7393Z" fill="var(--fill-0, #698474)"/>
</g>
</svg>
