<svg width="22" height="22" viewBox="0 0 22 22" fill="none" xmlns="http://www.w3.org/2000/svg">
<path d="M11 0C4.92487 0 0 4.92487 0 11C0 11.0992 0 11.1488 0.010142 11.2195C0.0555927 11.5362 0.306388 11.8656 0.599555 11.9938C0.664973 12.0223 0.722868 12.0383 0.838656 12.0703C1.02017 12.1204 1.18381 12.1643 1.32042 12.1999C2.18106 12.3961 3.07777 12.5 3.99996 12.5C7.30564 12.5 10.2993 11.164 12.4706 9H11C10.4477 9 10 8.55228 10 8C10 7.44772 10.4477 7 11 7H15C15.5523 7 16 7.44772 16 8V12C16 12.5523 15.5523 13 15 13C14.4477 13 14 12.5523 14 12V10.2978C11.4598 12.8899 7.91796 14.5 3.99996 14.5C3.73986 14.5 3.48086 14.4931 3.22292 14.4791C2.21076 14.4244 1.70468 14.3971 1.42612 14.5856C1.18892 14.7461 1.02431 15.0187 0.992674 15.3033C0.955525 15.6376 1.15315 15.9686 1.54839 16.6307C3.46824 19.8464 6.98262 22 11 22C17.0751 22 22 17.0751 22 11C22 4.92487 17.0751 0 11 0Z" fill="#4E6D5D"/>
</svg>
